<svg xmlns="http://www.w3.org/2000/svg" viewBox="0 0 511.999 511.999"><path d="M421.252 190.79c2.703 5.081 8.034 8.55 14.19 8.55 8.883 0 16.083-7.201 16.083-16.083s-7.201-16.084-16.083-16.084c-6.157 0-11.487 3.47-14.19 8.55v15.067zm0 55.813c2.703 5.081 8.034 8.551 14.19 8.551 8.883 0 16.083-7.201 16.083-16.083s-7.201-16.084-16.083-16.084c-6.157 0-11.487 3.47-14.19 8.55v15.066zM149.121 474.057c-5.081 2.703-8.55 8.034-8.55 14.19 0 8.883 7.201 16.083 16.083 16.083s16.084-7.201 16.084-16.083c0-6.157-3.47-11.488-8.55-14.19h-15.067zm55.812 0c-5.081 2.703-8.55 8.034-8.55 14.19 0 8.883 7.201 16.083 16.084 16.083s16.083-7.201 16.083-16.083c0-6.157-3.47-11.488-8.55-14.19h-15.067zm-112.53.115c-5.1 2.697-8.585 8.039-8.585 14.21 0 8.883 7.201 16.083 16.084 16.083s16.084-7.201 16.084-16.083c0-6.142-3.454-11.462-8.514-14.171l-15.069-.039z" fill="#ffc433"/><path d="M174.206 10.208c-8.422 3.426-13.954 8.869-13.954 8.869a53.357 53.357 0 0 0-7.132.354c-30.614 3.605-29.847 33.909-29.847 33.909-17.551 4.074-22.497 16.054-23.243 26.505-.673 9.433 2.075 17.619 2.075 17.619a41.786 41.786 0 0 0-4.387 2.074c-22.766 12.378-20.656 44.842-20.656 44.842h127.021V12.495c-11.082-7.002-21.807-5.57-29.877-2.287zm61.115 2.287V144.38h127.02s2.385-35.886-25.044-46.916c0 0 12.224-36.373-21.167-44.124 0 0 .899-34.858-36.979-34.261.001-.002-21.185-20.893-43.83-6.584z" fill="#f23466"/><path d="M341.767 99.63c.02-.031.043-.061.063-.092a41.68 41.68 0 0 0-4.387-2.074s2.748-8.187 2.075-17.619c-.048-.001-.095.009-.145.009-.743-10.453-5.688-22.439-23.244-26.515 0 0 .761-30.195-29.69-33.887l-.011-.022c-.169-.02-.346-.034-.516-.052l-.259-.026a52.14 52.14 0 0 0-2.958-.221c-.101-.005-.206-.006-.307-.01a55.041 55.041 0 0 0-3.091-.043s-5.532-5.443-13.954-8.869l-.025.048c-8.084-3.318-18.861-4.798-29.997 2.239v3.114c2.703 1.941 4.262 3.468 4.262 3.468a55.041 55.041 0 0 1 3.091.043l.307.01c1.018.046 2 .123 2.958.221l.259.026c.171.018.347.032.516.052l.011.022c30.451 3.692 29.69 33.887 29.69 33.887 17.556 4.075 22.5 16.061 23.244 26.515.048 0 .095-.01.145-.009.673 9.433-2.075 17.619-2.075 17.619a41.786 41.786 0 0 1 4.387 2.074c-.02.031-.043.061-.063.092 22.681 12.915 20.575 44.75 20.575 44.75h39.713c.001 0 2.107-31.835-20.574-44.75zm-244.105 0c-.02-.031-.043-.061-.063-.092a41.68 41.68 0 0 1 4.387-2.074s-2.748-8.187-2.075-17.619c.048-.001.095.009.145.009.743-10.453 5.688-22.439 23.244-26.515 0 0-.761-30.195 29.69-33.887l.011-.022c.169-.02.346-.034.516-.052l.259-.026a52.14 52.14 0 0 1 2.958-.221c.101-.005.206-.006.307-.01 1.002-.04 2.026-.06 3.091-.043 0 0 5.532-5.443 13.954-8.869l.025.048c8.084-3.318 18.861-4.798 29.997 2.239v3.114c-2.703 1.941-4.262 3.468-4.262 3.468a55.041 55.041 0 0 0-3.091.043l-.307.01c-1.018.046-2 .123-2.958.221l-.259.026c-.171.018-.347.032-.516.052l-.011.022c-30.452 3.692-29.69 33.887-29.69 33.887-17.556 4.075-22.5 16.061-23.244 26.515-.048 0-.095-.01-.145-.009-.673 9.433 2.075 17.619 2.075 17.619a41.786 41.786 0 0 0-4.387 2.074c.02.031.043.061.063.092-22.681 12.915-20.575 44.75-20.575 44.75H77.086s-2.106-31.835 20.576-44.75z" opacity=".1"/><path d="M366.645 430.059H70.519c-5.548 0-10.045-4.497-10.045-10.045V149.402c0-5.548 4.497-10.045 10.045-10.045h296.126c5.548 0 10.045 4.497 10.045 10.045v270.611c.001 5.548-4.497 10.046-10.045 10.046z" fill="#65cdef"/><path d="M366.645 139.357h-18.799v251.812c0 5.548-4.497 10.045-10.045 10.045H60.474v18.799c0 5.548 4.497 10.045 10.045 10.045h296.126c5.548 0 10.045-4.497 10.045-10.045V149.402c.001-5.548-4.497-10.045-10.045-10.045z" opacity=".1"/><path d="M288.538 358.254H148.627c-5.548 0-10.045-4.497-10.045-10.045V221.208c0-5.548 4.497-10.045 10.045-10.045h139.911c5.548 0 10.045 4.497 10.045 10.045v127.001c0 5.548-4.497 10.045-10.045 10.045z" fill="#fff"/><path d="M250.921 298.514h-63.377c-7.176 0-13.048-5.871-13.048-13.048 0-7.176 5.871-13.048 13.048-13.048h63.377c7.176 0 13.048 5.871 13.048 13.048-.001 7.176-5.872 13.048-13.048 13.048z" fill="#ffc433"/><g fill="#3a9cb4"><circle cx="100.142" cy="180.925" r="12.491"/><circle cx="339.27" cy="180.925" r="12.491"/><circle cx="100.142" cy="390.008" r="12.491"/><circle cx="339.27" cy="390.008" r="12.491"/></g><path d="M435.442 215.451c-10.389 0-19.226 6.745-22.378 16.084h-28.839V190.79h28.839c3.152 9.339 11.989 16.085 22.378 16.085 13.023 0 23.617-10.595 23.617-23.618s-10.595-23.617-23.617-23.617c-10.389 0-19.226 6.745-22.378 16.083h-28.839v-26.32c0-8.641-6.272-15.828-14.499-17.292-1.181-12.281-7.063-29.292-23.694-38.781.262-1.446.502-3.086.679-4.861a7.39 7.39 0 0 0 .08-.909c.599-7.136.057-16.285-4.496-24.441-4.061-7.274-10.459-12.487-19.062-15.548-.88-6.286-3.526-16.346-11.412-24.313-7.324-7.397-17.321-11.325-29.749-11.695-10.022-8.402-30.62-18.173-50.775-5.439a7.535 7.535 0 0 0-3.51 6.369v119.329h-16.171V12.495a7.534 7.534 0 0 0-3.51-6.369c-20.156-12.737-40.755-2.964-50.775 5.439-12.426.371-22.425 4.297-29.749 11.695-7.887 7.966-10.531 18.026-11.412 24.313-8.602 3.061-15.001 8.273-19.062 15.548-4.555 8.157-5.095 17.307-4.496 24.443.008.299.036.601.08.903a61.78 61.78 0 0 0 .679 4.865c-16.52 9.426-22.432 26.272-23.669 38.535-9.313.431-16.764 8.121-16.764 17.538v173.581a7.534 7.534 0 1 0 15.068 0v-11.483h44.622a7.534 7.534 0 1 0 0-15.068h-44.62v-22.389h44.622a7.534 7.534 0 1 0 0-15.068H68.008V236.59h44.622a7.534 7.534 0 1 0 0-15.068H68.008v-72.12a2.515 2.515 0 0 1 2.511-2.511h89.432a7.534 7.534 0 1 0 0-15.068h-75.04c1.026-7.729 4.739-19.893 17.554-26.258 6.046 6.406 14.831 11.616 26.698 11.616 2.935 0 6.061-.318 9.377-1.017a7.535 7.535 0 0 0-3.104-14.744c-19.301 4.065-26.419-11.701-27.878-15.644-.356-4.756.021-10.542 2.737-15.366 2.755-4.895 7.558-8.078 14.681-9.732 3.454-.802 5.88-3.947 5.829-7.491-.002-.117-.078-11.776 7.572-19.415 3.003-2.999 6.916-5.058 11.677-6.176-1.423 6.08-1.357 13.335 1.488 21.629a7.522 7.522 0 0 0 9.571 4.682 7.533 7.533 0 0 0 4.682-9.57c-5.437-15.852 4.722-23.184 5.959-24.004a7.474 7.474 0 0 0 1.712-1.503c5.83-3.13 14.236-5.685 23.082-1.832v114.827h-10.135a7.534 7.534 0 1 0 0 15.068h180.231a2.515 2.515 0 0 1 2.511 2.511v128.529h-63.039V249.86h45.639a7.534 7.534 0 0 0 7.534-7.534v-17.714a7.534 7.534 0 1 0-15.068 0v10.177h-38.105v-13.582c0-9.693-7.887-17.579-17.579-17.579H148.628c-9.693 0-17.579 7.887-17.579 17.579v127c0 9.693 7.887 17.579 17.579 17.579h139.911c9.693 0 17.579-7.887 17.579-17.579v-30.756h63.039v102.561a2.515 2.515 0 0 1-2.511 2.511H70.519a2.515 2.515 0 0 1-2.511-2.511v-68.18a7.534 7.534 0 1 0-15.068 0v68.18c0 9.693 7.887 17.579 17.579 17.579h21.848v28.41c-9.339 3.152-16.084 11.99-16.084 22.379 0 13.023 10.595 23.617 23.617 23.617s23.618-10.595 23.618-23.617c0-10.389-6.745-19.226-16.085-22.379v-28.41h41.685v28.276c-9.339 3.152-16.083 11.989-16.083 22.378 0 13.023 10.595 23.617 23.617 23.617s23.617-10.595 23.617-23.617c0-10.389-6.745-19.226-16.083-22.378v-28.276h40.745v28.276c-9.339 3.152-16.084 11.989-16.084 22.378 0 13.023 10.595 23.617 23.617 23.617 13.023 0 23.617-10.595 23.617-23.617 0-10.389-6.745-19.226-16.084-22.378v-28.276h146.644c9.693 0 17.579-7.887 17.579-17.579V246.603h28.839c3.152 9.339 11.989 16.085 22.378 16.085 13.023 0 23.617-10.595 23.617-23.618.005-13.025-10.589-23.619-23.612-23.619zm0-40.745c4.714 0 8.55 3.835 8.55 8.55 0 4.714-3.835 8.551-8.55 8.551-4.714 0-8.55-3.835-8.55-8.551.001-4.714 3.836-8.55 8.55-8.55zM99.902 496.932c-4.714 0-8.55-3.835-8.55-8.55s3.835-8.551 8.55-8.551c4.714 0 8.551 3.835 8.551 8.551-.001 4.714-3.837 8.55-8.551 8.55zm56.753-.135c-4.714 0-8.55-3.835-8.55-8.55 0-4.709 3.828-8.542 8.535-8.549l.014.001.014-.001c4.707.008 8.535 3.84 8.535 8.549.001 4.714-3.834 8.55-8.548 8.55zm55.812 0c-4.714 0-8.55-3.835-8.55-8.55 0-4.709 3.828-8.542 8.535-8.549l.014.001.014-.001c4.707.008 8.535 3.84 8.535 8.549.002 4.714-3.834 8.55-8.548 8.55zm30.388-364.974V16.998c8.851-3.852 17.258-1.297 23.084 1.831a7.506 7.506 0 0 0 1.775 1.545c.474.296 11.555 7.453 5.894 23.962a7.532 7.532 0 0 0 4.682 9.57c.81.278 1.633.41 2.445.41a7.537 7.537 0 0 0 7.126-5.092c2.845-8.295 2.911-15.553 1.486-21.635 4.762 1.118 8.674 3.182 11.679 6.182 7.65 7.638 7.574 19.298 7.573 19.372a7.535 7.535 0 0 0 5.828 7.533c7.123 1.653 11.926 4.837 14.681 9.732 2.716 4.826 3.092 10.611 2.737 15.366-1.458 3.941-8.572 19.706-27.878 15.644a7.534 7.534 0 0 0-3.104 14.744c3.318.699 6.441 1.018 9.377 1.018 11.87 0 20.656-5.215 26.703-11.623 12.819 6.366 16.529 18.545 17.553 26.264H242.855v.002zm48.194 216.386a2.515 2.515 0 0 1-2.511 2.511H148.627a2.515 2.515 0 0 1-2.511-2.511V221.208a2.515 2.515 0 0 1 2.511-2.511h139.911a2.515 2.515 0 0 1 2.511 2.511v127.001zm15.068-45.824V293h63.039v9.385h-63.039zm129.325-54.766c-4.714 0-8.55-3.835-8.55-8.551 0-4.714 3.835-8.55 8.55-8.55 4.714 0 8.55 3.835 8.55 8.55 0 4.715-3.835 8.551-8.55 8.551z"/><path d="M250.921 267.449h-63.377c-11.349 0-20.582 9.233-20.582 20.582s9.233 20.582 20.582 20.582h63.377c11.348 0 20.582-9.233 20.582-20.582-.001-11.348-9.233-20.582-20.582-20.582zm0 26.096h-63.377a5.52 5.52 0 0 1-5.514-5.514 5.52 5.52 0 0 1 5.514-5.514h63.377a5.52 5.52 0 0 1 5.514 5.514 5.52 5.52 0 0 1-5.514 5.514zM80.114 180.926c0 11.043 8.983 20.026 20.026 20.026 11.042 0 20.025-8.983 20.025-20.026 0-11.042-8.983-20.025-20.025-20.025-11.043-.001-20.026 8.983-20.026 20.025zm24.983 0a4.963 4.963 0 0 1-4.957 4.958 4.963 4.963 0 0 1-4.958-4.958 4.963 4.963 0 0 1 4.958-4.957 4.962 4.962 0 0 1 4.957 4.957zm254.193 0c0-11.042-8.983-20.025-20.025-20.025-11.043 0-20.026 8.983-20.026 20.025 0 11.043 8.983 20.026 20.026 20.026 11.042 0 20.025-8.984 20.025-20.026zm-24.984 0a4.963 4.963 0 0 1 4.958-4.957 4.963 4.963 0 0 1 4.957 4.957 4.963 4.963 0 0 1-4.957 4.958 4.964 4.964 0 0 1-4.958-4.958zM120.165 390.005c0-11.042-8.983-20.025-20.025-20.025-11.043 0-20.026 8.983-20.026 20.025 0 11.043 8.983 20.026 20.026 20.026 11.042-.001 20.025-8.984 20.025-20.026zm-24.983 0a4.963 4.963 0 0 1 4.958-4.957 4.963 4.963 0 0 1 4.957 4.957 4.963 4.963 0 0 1-4.957 4.958 4.965 4.965 0 0 1-4.958-4.958zm264.108 0c0-11.042-8.983-20.025-20.025-20.025-11.043 0-20.026 8.983-20.026 20.025 0 11.043 8.983 20.026 20.026 20.026 11.042-.001 20.025-8.984 20.025-20.026zm-24.984 0a4.963 4.963 0 0 1 4.958-4.957 4.963 4.963 0 0 1 4.957 4.957 4.963 4.963 0 0 1-4.957 4.958 4.965 4.965 0 0 1-4.958-4.958z"/></svg>