<svg xmlns="http://www.w3.org/2000/svg" viewBox="0 0 46 46"><path d="M41.183 32.615A1.183 1.183 0 0 1 40 31.432a2.817 2.817 0 0 0-2.817-2.817H8.817A2.818 2.818 0 0 0 6 31.433c0 .653-.529 1.183-1.183 1.183H2.325c-.21.668-.325 1.245-.325 1.999v.36c0 5.302 4.338 9.64 9.64 9.64h22.705c5.302 0 9.64-4.338 9.64-9.64v-.36c0-.755-.115-1.331-.325-2h-2.477z" fill="#f2d5a5"/><path d="M31.651 28.615a9.937 9.937 0 0 0 1.349-5c0-5.523-4.477-10-10-10s-10 4.477-10 10c0 1.824.496 3.528 1.349 5h17.302zm14.191-.239c-.536-7.369-2.456-12.784-4.978-16.76a9.962 9.962 0 0 0-2.864 7c0 4.78 3.357 8.772 7.842 9.76zM36.825 6.734a20.21 20.21 0 0 0-8.637-4.706A6.984 6.984 0 0 0 28 3.615a7 7 0 0 0 7 7 6.96 6.96 0 0 0 4.158-1.378 24.024 24.024 0 0 0-2.333-2.503zM7.248 8.745A6.965 6.965 0 0 0 12 10.616a7 7 0 0 0 7-7c0-.625-.09-1.228-.244-1.805-3.481.734-6.808 2.364-9.581 4.924a23.755 23.755 0 0 0-1.927 2.01zM8 18.615a9.962 9.962 0 0 0-2.864-7C2.615 15.591.694 21.006.158 28.375 4.643 27.388 8 23.396 8 18.615z" fill="#ecf0f1"/><path d="M17.5 36.615a2.5 2.5 0 0 1-2.5-2.5v-5.5h5v5.5a2.5 2.5 0 0 1-2.5 2.5zm11 0a2.5 2.5 0 0 1-2.5-2.5v-5.5h5v5.5a2.5 2.5 0 0 1-2.5 2.5z" fill="#140100"/><path d="M38 18.615a9.963 9.963 0 0 1 2.85-6.984 25.346 25.346 0 0 0-1.692-2.394A6.959 6.959 0 0 1 35 10.615a7 7 0 0 1-7-7c0-.54.068-1.062.184-1.567a20.545 20.545 0 0 0-9.424-.22c.151.571.24 1.168.24 1.787a7 7 0 0 1-7 7 6.965 6.965 0 0 1-4.752-1.871 24.922 24.922 0 0 0-2.11 2.873A9.97 9.97 0 0 1 8 18.615c0 4.778-3.354 8.768-7.834 9.758A54.883 54.883 0 0 0 0 32.615h4.817c.654 0 1.183-.529 1.183-1.182a2.817 2.817 0 0 1 2.817-2.817h5.531a9.937 9.937 0 0 1-1.349-5c0-5.523 4.477-10 10-10s10 4.477 10 10a9.937 9.937 0 0 1-1.349 5h5.531a2.817 2.817 0 0 1 2.817 2.817c0 .653.529 1.183 1.183 1.183H46c0-1.488-.061-2.894-.164-4.241-4.481-.991-7.836-4.98-7.836-9.76z" fill="#bc1c05"/></svg>